<svg width="369" height="115" viewBox="0 0 369 115" fill="none" xmlns="http://www.w3.org/2000/svg">
<path d="M58.8516 115C91.3544 115 117.703 89.2564 117.703 57.5C117.703 25.7436 91.3544 0 58.8516 0C26.3487 0 0 25.7436 0 57.5C0 89.2564 26.3487 115 58.8516 115Z" fill="#CEE531"/>
<path d="M56.1792 86.888C52.2054 86.8992 48.2688 86.1396 44.5977 84.6534C40.9265 83.1672 37.5937 80.9838 34.7926 78.2299L45.615 67.656C48.4195 70.3899 52.2194 71.9252 56.1811 71.9252C60.1428 71.9252 63.9427 70.3899 66.7473 67.656L77.5697 78.2299C74.7668 80.9826 71.4332 83.1651 67.7616 84.6512C64.0901 86.1374 60.1534 86.8976 56.1792 86.888Z" fill="black"/>
<path d="M66.7441 47.0122C63.9396 44.2783 60.1396 42.7429 56.178 42.7429C52.2163 42.7429 48.4163 44.2783 45.6118 47.0122L34.7885 36.4383C37.5966 33.6934 40.9306 31.5159 44.6002 30.0302C48.2698 28.5446 52.2031 27.7799 56.1752 27.7799C60.1474 27.7799 64.0807 28.5446 67.7503 30.0302C71.4199 31.5159 74.7539 33.6934 77.5619 36.4383L66.7441 47.0122Z" fill="black"/>
<path d="M34.7879 78.2339C31.9784 75.4904 29.7497 72.2329 28.2291 68.6476C26.7086 65.0623 25.9259 61.2193 25.9259 57.3384C25.9259 53.4575 26.7086 49.6145 28.2291 46.0292C29.7497 42.4439 31.9784 39.1864 34.7879 36.4429L45.6101 47.0172C44.2223 48.3724 43.1213 49.9814 42.3702 51.7524C41.6191 53.5234 41.2325 55.4216 41.2325 57.3386C41.2325 59.2557 41.6191 61.1539 42.3702 62.9249C43.1213 64.6959 44.2223 66.3049 45.6101 67.6601L34.7879 78.2339Z" fill="url(#paint0_linear_1458_1633)"/>
<path d="M83.6316 65.287C88.1277 65.287 91.7725 61.7259 91.7725 57.3331C91.7725 52.9403 88.1277 49.3792 83.6316 49.3792C79.1356 49.3792 75.4908 52.9403 75.4908 57.3331C75.4908 61.7259 79.1356 65.287 83.6316 65.287Z" fill="black"/>
<path d="M164.614 60.26C158.629 60.26 153.685 58.3169 149.783 54.4307C145.882 50.5445 143.931 45.7515 143.931 40.0517C143.931 34.3149 145.882 29.522 149.783 25.6728C153.685 21.7865 158.629 19.8434 164.614 19.8434C168.213 19.8434 171.527 20.6762 174.558 22.3417C177.626 23.9702 180.013 26.1909 181.717 29.0038L174.956 32.8345C173.971 31.0949 172.569 29.744 170.751 28.7817C168.932 27.7824 166.887 27.2828 164.614 27.2828C160.75 27.2828 157.625 28.4671 155.238 30.8359C152.89 33.2046 151.715 36.2765 151.715 40.0517C151.715 43.7899 152.89 46.8433 155.238 49.2121C157.625 51.5808 160.75 52.7652 164.614 52.7652C166.887 52.7652 168.932 52.284 170.751 51.3217C172.607 50.3224 174.009 48.9715 174.956 47.269L181.717 51.0997C180.013 53.9125 177.645 56.1517 174.615 57.8172C171.584 59.4457 168.251 60.26 164.614 60.26Z" fill="white"/>
<path d="M193.967 36.4986C194.649 34.7221 195.767 33.3896 197.32 32.5014C198.911 31.6131 200.673 31.169 202.604 31.169V39.1634C200.369 38.9044 198.362 39.3485 196.581 40.4959C194.839 41.6432 193.967 43.5493 193.967 46.2141V59.4828H186.637V31.7241H193.967V36.4986Z" fill="white"/>
<path d="M212.031 48.5459C213.016 52.0249 215.686 53.7645 220.043 53.7645C222.846 53.7645 224.967 52.8392 226.407 50.9886L232.316 54.3196C229.513 58.2799 225.384 60.26 219.929 60.26C215.232 60.26 211.463 58.8721 208.621 56.0962C205.78 53.3203 204.36 49.8228 204.36 45.6034C204.36 41.4211 205.761 37.9421 208.565 35.1662C211.368 32.3533 214.967 30.9469 219.361 30.9469C223.528 30.9469 226.956 32.3533 229.646 35.1662C232.373 37.9791 233.737 41.4582 233.737 45.6034C233.737 46.5287 233.642 47.5095 233.453 48.5459H212.031ZM211.917 42.9941H226.407C225.99 41.1066 225.119 39.7001 223.793 38.7748C222.505 37.8495 221.028 37.3869 219.361 37.3869C217.391 37.3869 215.762 37.8865 214.474 38.8859C213.186 39.8482 212.334 41.2176 211.917 42.9941Z" fill="white"/>
<path d="M260.224 31.7241H267.555V59.4828H260.224V56.2072C258.027 58.9091 254.94 60.26 250.962 60.26C247.174 60.26 243.916 58.8536 241.189 56.0407C238.499 53.1908 237.155 49.7117 237.155 45.6034C237.155 41.4952 238.499 38.0346 241.189 35.2217C243.916 32.3718 247.174 30.9469 250.962 30.9469C254.94 30.9469 258.027 32.2978 260.224 34.9997V31.7241ZM246.701 51.2662C248.178 52.7096 250.053 53.4314 252.326 53.4314C254.599 53.4314 256.474 52.7096 257.952 51.2662C259.467 49.7857 260.224 47.8982 260.224 45.6034C260.224 43.3087 259.467 41.4396 257.952 39.9962C256.474 38.5157 254.599 37.7755 252.326 37.7755C250.053 37.7755 248.178 38.5157 246.701 39.9962C245.223 41.4396 244.485 43.3087 244.485 45.6034C244.485 47.8982 245.223 49.7857 246.701 51.2662Z" fill="white"/>
<path d="M290.453 38.6083H284.032V50.1559C284.032 51.1182 284.278 51.8214 284.77 52.2655C285.263 52.7097 285.982 52.9687 286.93 53.0428C287.877 53.0798 289.051 53.0613 290.453 52.9872V59.4828C285.414 60.0379 281.853 59.5753 279.77 58.0948C277.724 56.6144 276.702 53.968 276.702 50.1559V38.6083H271.758V31.7241H276.702V26.1169L284.032 23.9517V31.7241H290.453V38.6083Z" fill="white"/>
<path d="M299.257 28.3931C298.045 28.3931 296.984 27.9675 296.075 27.1162C295.204 26.2279 294.768 25.1916 294.768 24.0072C294.768 22.8229 295.204 21.7865 296.075 20.8983C296.984 20.01 298.045 19.5659 299.257 19.5659C300.507 19.5659 301.568 20.01 302.439 20.8983C303.348 21.7865 303.803 22.8229 303.803 24.0072C303.803 25.1916 303.348 26.2279 302.439 27.1162C301.568 27.9675 300.507 28.3931 299.257 28.3931ZM295.621 59.4828V31.7241H302.951V59.4828H295.621Z" fill="white"/>
<path d="M328.354 31.7241H336.423L325.627 59.4828H317.274L306.478 31.7241H314.546L321.422 51.1552L328.354 31.7241Z" fill="white"/>
<path d="M360.44 31.7241H367.77V59.4828H360.44V56.2072C358.243 58.9091 355.156 60.26 351.178 60.26C347.39 60.26 344.132 58.8536 341.405 56.0407C338.715 53.1908 337.37 49.7117 337.37 45.6034C337.37 41.4952 338.715 38.0346 341.405 35.2217C344.132 32.3718 347.39 30.9469 351.178 30.9469C355.156 30.9469 358.243 32.2978 360.44 34.9997V31.7241ZM346.916 51.2662C348.394 52.7096 350.269 53.4314 352.542 53.4314C354.815 53.4314 356.69 52.7096 358.167 51.2662C359.683 49.7857 360.44 47.8982 360.44 45.6034C360.44 43.3087 359.683 41.4396 358.167 39.9962C356.69 38.5157 354.815 37.7755 352.542 37.7755C350.269 37.7755 348.394 38.5157 346.916 39.9962C345.439 41.4396 344.7 43.3087 344.7 45.6034C344.7 47.8982 345.439 49.7857 346.916 51.2662Z" fill="white"/>
<path d="M162.742 88.9921C162.742 90.2158 162.544 91.3293 162.147 92.3326C161.751 93.3359 161.19 94.1947 160.467 94.9092C159.743 95.6236 158.872 96.1785 157.853 96.5737C156.842 96.9613 155.722 97.1552 154.492 97.1552H148.25V80.8177H154.492C155.722 80.8177 156.842 81.0153 157.853 81.4106C158.872 81.7982 159.743 82.3531 160.467 83.0751C161.19 83.7896 161.751 84.6484 162.147 85.6517C162.544 86.655 162.742 87.7685 162.742 88.9921ZM160.42 88.9921C160.42 87.9889 160.28 87.092 160 86.3015C159.72 85.5111 159.323 84.8422 158.81 84.295C158.297 83.7478 157.674 83.3297 156.943 83.0409C156.212 82.7521 155.395 82.6077 154.492 82.6077H150.513V95.3652H154.492C155.395 95.3652 156.212 95.2208 156.943 94.932C157.674 94.6432 158.297 94.2289 158.81 93.6893C159.323 93.1421 159.72 92.4732 160 91.6828C160.28 90.8923 160.42 89.9954 160.42 88.9921Z" fill="white" fill-opacity="0.7"/>
<path d="M177.719 95.3538L177.707 97.1552H167.404V80.8177H177.707V82.6191H169.668V88.0459H176.179V89.7788H169.668V95.3538H177.719Z" fill="white" fill-opacity="0.7"/>
<path d="M190.827 83.3715C190.757 83.4855 190.679 83.5729 190.593 83.6337C190.516 83.6869 190.418 83.7135 190.302 83.7135C190.169 83.7135 190.014 83.6489 189.835 83.5197C189.656 83.3905 189.43 83.2499 189.158 83.0979C188.894 82.9383 188.571 82.7939 188.19 82.6647C187.816 82.5355 187.361 82.4709 186.824 82.4709C186.319 82.4709 185.871 82.5393 185.482 82.6761C185.101 82.8053 184.778 82.9839 184.514 83.2119C184.257 83.4399 184.063 83.7097 183.93 84.0214C183.798 84.3254 183.732 84.656 183.732 85.0132C183.732 85.4693 183.845 85.8493 184.07 86.1533C184.304 86.4498 184.607 86.7044 184.981 86.9172C185.362 87.13 185.79 87.3162 186.264 87.4758C186.747 87.6278 187.237 87.7875 187.734 87.9547C188.24 88.1219 188.73 88.3119 189.205 88.5247C189.687 88.7299 190.115 88.9921 190.488 89.3114C190.87 89.6306 191.173 90.022 191.398 90.4857C191.632 90.9493 191.749 91.5193 191.749 92.1958C191.749 92.9102 191.624 93.5829 191.375 94.2137C191.126 94.837 190.761 95.3804 190.278 95.8441C189.804 96.3077 189.216 96.6725 188.516 96.9386C187.824 97.2046 187.034 97.3376 186.148 97.3376C185.058 97.3376 184.07 97.1476 183.184 96.7675C182.297 96.3799 181.538 95.8593 180.908 95.2056L181.562 94.1567C181.624 94.0731 181.698 94.0047 181.783 93.9515C181.877 93.8907 181.978 93.8603 182.087 93.8603C182.188 93.8603 182.301 93.9021 182.425 93.9857C182.557 94.0617 182.705 94.1605 182.869 94.2821C183.032 94.4038 183.219 94.5368 183.429 94.6812C183.639 94.8256 183.876 94.9586 184.14 95.0802C184.413 95.2018 184.72 95.3044 185.062 95.388C185.405 95.464 185.79 95.502 186.218 95.502C186.754 95.502 187.233 95.4298 187.653 95.2854C188.073 95.141 188.427 94.9396 188.715 94.6812C189.01 94.4152 189.236 94.0997 189.391 93.7349C189.547 93.3701 189.625 92.9634 189.625 92.515C189.625 92.021 189.508 91.6181 189.275 91.3065C189.049 90.9873 188.75 90.7213 188.376 90.5085C188.003 90.2956 187.575 90.117 187.093 89.9726C186.61 89.8206 186.12 89.6686 185.622 89.5166C185.125 89.357 184.634 89.1746 184.152 88.9693C183.67 88.7641 183.242 88.4981 182.869 88.1713C182.495 87.8445 182.192 87.4378 181.958 86.9514C181.733 86.4574 181.62 85.8493 181.62 85.1273C181.62 84.5496 181.733 83.991 181.958 83.4513C182.192 82.9117 182.526 82.4329 182.962 82.0148C183.405 81.5968 183.946 81.2624 184.584 81.0116C185.23 80.7607 185.969 80.6353 186.801 80.6353C187.734 80.6353 188.582 80.7797 189.345 81.0685C190.115 81.3574 190.792 81.7754 191.375 82.3226L190.827 83.3715Z" fill="white" fill-opacity="0.7"/>
<path d="M198.609 97.1552H196.345V80.8177H198.609V97.1552Z" fill="white" fill-opacity="0.7"/>
<path d="M217.869 89.3V95.5704C217.029 96.1633 216.13 96.6079 215.174 96.9043C214.225 97.1932 213.182 97.3376 212.046 97.3376C210.701 97.3376 209.487 97.1362 208.406 96.7333C207.324 96.3229 206.399 95.7529 205.628 95.0232C204.866 94.286 204.279 93.4043 203.866 92.3782C203.454 91.3521 203.248 90.2234 203.248 88.9921C203.248 87.7457 203.446 86.6094 203.843 85.5833C204.248 84.5572 204.819 83.6793 205.558 82.9497C206.298 82.2124 207.196 81.6424 208.254 81.2396C209.312 80.8367 210.494 80.6353 211.801 80.6353C212.463 80.6353 213.077 80.6847 213.645 80.7835C214.213 80.8747 214.738 81.0116 215.22 81.194C215.703 81.3688 216.15 81.5854 216.562 81.8438C216.974 82.0946 217.36 82.3796 217.717 82.6989L217.076 83.7021C216.974 83.8542 216.842 83.953 216.679 83.9986C216.523 84.0366 216.348 83.9986 216.154 83.8846C215.967 83.7782 215.753 83.6489 215.512 83.4969C215.271 83.3449 214.975 83.2005 214.625 83.0637C214.283 82.9193 213.874 82.7977 213.4 82.6989C212.933 82.6001 212.377 82.5507 211.731 82.5507C210.79 82.5507 209.938 82.7027 209.176 83.0067C208.413 83.3031 207.764 83.7326 207.227 84.295C206.69 84.8498 206.278 85.5263 205.99 86.3243C205.702 87.1148 205.558 88.0041 205.558 88.9921C205.558 90.0182 205.706 90.9379 206.002 91.7512C206.305 92.5568 206.733 93.2447 207.285 93.8147C207.846 94.3772 208.522 94.8066 209.316 95.103C210.109 95.3994 211 95.5476 211.988 95.5476C212.766 95.5476 213.454 95.464 214.053 95.2968C214.66 95.122 215.251 94.8826 215.827 94.5786V90.9873H213.225C213.077 90.9873 212.957 90.9455 212.863 90.8619C212.778 90.7783 212.735 90.6757 212.735 90.5541V89.3H217.869Z" fill="white" fill-opacity="0.7"/>
<path d="M236.282 80.8177V97.1552H235.15C234.971 97.1552 234.819 97.1248 234.695 97.064C234.578 97.0032 234.461 96.9006 234.345 96.7561L224.671 84.4432C224.687 84.6332 224.699 84.8194 224.706 85.0018C224.714 85.1843 224.718 85.3553 224.718 85.5149V97.1552H222.734V80.8177H223.901C224.002 80.8177 224.088 80.8253 224.158 80.8405C224.228 80.8481 224.29 80.8671 224.345 80.8975C224.399 80.9203 224.453 80.9583 224.508 81.0116C224.562 81.0572 224.621 81.118 224.683 81.194L234.356 93.4955C234.341 93.2979 234.325 93.1079 234.31 92.9254C234.302 92.7354 234.298 92.5568 234.298 92.3896V80.8177H236.282Z" fill="white" fill-opacity="0.7"/>
<path d="M257.433 91.0899L254.808 84.4432C254.73 84.2456 254.648 84.0176 254.563 83.7592C254.477 83.4931 254.396 83.2119 254.318 82.9155C254.154 83.5311 253.987 84.0442 253.816 84.4546L251.191 91.0899H257.433ZM262.148 97.1552H260.397C260.195 97.1552 260.032 97.1058 259.907 97.007C259.783 96.9081 259.689 96.7827 259.627 96.6307L258.064 92.686H250.56L248.997 96.6307C248.95 96.7675 248.861 96.8891 248.728 96.9955C248.596 97.102 248.433 97.1552 248.238 97.1552H246.488L253.174 80.8177H255.461L262.148 97.1552Z" fill="white" fill-opacity="0.7"/>
<path d="M277.053 93.7805C277.178 93.7805 277.287 93.8299 277.38 93.9287L278.279 94.875C277.594 95.6503 276.762 96.2545 275.782 96.6877C274.809 97.121 273.631 97.3376 272.246 97.3376C271.048 97.3376 269.959 97.1362 268.979 96.7333C267.998 96.3229 267.162 95.7529 266.47 95.0232C265.777 94.286 265.241 93.4043 264.86 92.3782C264.478 91.3521 264.288 90.2234 264.288 88.9921C264.288 87.7609 264.486 86.6322 264.883 85.6061C265.28 84.58 265.836 83.6984 266.552 82.9611C267.275 82.2238 268.138 81.6538 269.142 81.251C270.146 80.8405 271.254 80.6353 272.468 80.6353C273.658 80.6353 274.708 80.8215 275.618 81.194C276.528 81.5664 277.33 82.0718 278.022 82.7103L277.275 83.7249C277.229 83.8009 277.166 83.8656 277.089 83.9188C277.018 83.9644 276.921 83.9872 276.797 83.9872C276.657 83.9872 276.486 83.915 276.283 83.7706C276.081 83.6185 275.817 83.4513 275.49 83.2689C275.163 83.0865 274.755 82.9231 274.265 82.7787C273.775 82.6267 273.172 82.5507 272.456 82.5507C271.592 82.5507 270.803 82.6989 270.087 82.9953C269.371 83.2841 268.753 83.706 268.232 84.2608C267.718 84.8156 267.318 85.4921 267.03 86.2901C266.742 87.0882 266.598 87.9889 266.598 88.9921C266.598 90.0106 266.746 90.9189 267.042 91.717C267.345 92.515 267.753 93.1915 268.267 93.7463C268.788 94.2935 269.399 94.7116 270.099 95.0004C270.807 95.2892 271.569 95.4336 272.386 95.4336C272.884 95.4336 273.331 95.407 273.728 95.3538C274.132 95.293 274.502 95.2018 274.836 95.0802C275.179 94.9586 275.494 94.8066 275.782 94.6242C276.077 94.4342 276.369 94.2099 276.657 93.9515C276.789 93.8375 276.921 93.7805 277.053 93.7805Z" fill="white" fill-opacity="0.7"/>
<path d="M291.184 91.0899L288.558 84.4432C288.48 84.2456 288.399 84.0176 288.313 83.7592C288.228 83.4931 288.146 83.2119 288.068 82.9155C287.905 83.5311 287.738 84.0442 287.566 84.4546L284.941 91.0899H291.184ZM295.898 97.1552H294.148C293.945 97.1552 293.782 97.1058 293.658 97.007C293.533 96.9081 293.44 96.7827 293.377 96.6307L291.814 92.686H284.311L282.747 96.6307C282.7 96.7675 282.611 96.8891 282.479 96.9955C282.347 97.102 282.183 97.1552 281.989 97.1552H280.238L286.925 80.8177H289.212L295.898 97.1552Z" fill="white" fill-opacity="0.7"/>
<path d="M313.991 88.9921C313.991 90.2158 313.792 91.3293 313.396 92.3326C312.999 93.3359 312.439 94.1947 311.715 94.9092C310.992 95.6236 310.121 96.1785 309.101 96.5737C308.09 96.9613 306.97 97.1552 305.741 97.1552H299.498V80.8177H305.741C306.97 80.8177 308.09 81.0153 309.101 81.4106C310.121 81.7982 310.992 82.3531 311.715 83.0751C312.439 83.7896 312.999 84.6484 313.396 85.6517C313.792 86.655 313.991 87.7685 313.991 88.9921ZM311.669 88.9921C311.669 87.9889 311.529 87.092 311.249 86.3015C310.968 85.5111 310.572 84.8422 310.058 84.295C309.545 83.7478 308.923 83.3297 308.191 83.0409C307.46 82.7521 306.643 82.6077 305.741 82.6077H301.762V95.3652H305.741C306.643 95.3652 307.46 95.2208 308.191 94.932C308.923 94.6432 309.545 94.2289 310.058 93.6893C310.572 93.1421 310.968 92.4732 311.249 91.6828C311.529 90.8923 311.669 89.9954 311.669 88.9921Z" fill="white" fill-opacity="0.7"/>
<path d="M328.967 95.3538L328.956 97.1552H318.652V80.8177H328.956V82.6191H320.916V88.0459H327.427V89.7788H320.916V95.3538H328.967Z" fill="white" fill-opacity="0.7"/>
<path d="M350.92 80.8177V97.1552H348.936V85.1501C348.936 84.9904 348.94 84.8194 348.948 84.637C348.964 84.4546 348.979 84.2684 348.995 84.0784L343.254 94.2936C343.075 94.6356 342.802 94.8066 342.437 94.8066H342.11C341.744 94.8066 341.472 94.6356 341.293 94.2936L335.435 84.0328C335.482 84.4356 335.505 84.808 335.505 85.1501V97.1552H333.522V80.8177H335.19C335.393 80.8177 335.548 80.8367 335.657 80.8747C335.766 80.9127 335.871 81.0192 335.972 81.194L341.748 91.2495C341.842 91.4319 341.931 91.6219 342.017 91.8196C342.11 92.0172 342.196 92.2186 342.273 92.4238C342.351 92.2186 342.433 92.0172 342.518 91.8196C342.604 91.6143 342.697 91.4205 342.799 91.2381L348.47 81.194C348.563 81.0192 348.664 80.9127 348.773 80.8747C348.89 80.8367 349.049 80.8177 349.251 80.8177H350.92Z" fill="white" fill-opacity="0.7"/>
<path d="M362.874 90.6453V97.1552H360.61V90.6453L354.484 80.8177H356.468C356.67 80.8177 356.829 80.8671 356.946 80.9659C357.063 81.0571 357.164 81.1788 357.249 81.3308L361.077 87.6811C361.217 87.9471 361.345 88.1979 361.462 88.4335C361.579 88.6615 361.68 88.8933 361.765 89.129C361.851 88.8933 361.948 88.6615 362.057 88.4335C362.166 88.1979 362.286 87.9471 362.419 87.6811L366.234 81.3308C366.304 81.2016 366.402 81.0838 366.526 80.9773C366.651 80.8709 366.81 80.8177 367.005 80.8177H369L362.874 90.6453Z" fill="white" fill-opacity="0.7"/>
<defs>
<linearGradient id="paint0_linear_1458_1633" x1="184.5" y1="0" x2="184.5" y2="115" gradientUnits="userSpaceOnUse">
<stop/>
<stop offset="1" stop-color="#545454" stop-opacity="0"/>
</linearGradient>
</defs>
</svg>
