<svg width="24" height="13" viewBox="0 0 24 13" fill="none" xmlns="http://www.w3.org/2000/svg">
    <path id="Icon metro-arrow-right" d="M17.9348 11.7315L22.7197 7.14817C23.0934 6.79021 23.0934 6.20979 22.7197 5.8518L17.9348 1.26847C17.561 0.91051 16.9551 0.91051 16.5814 1.26847C16.2076 1.62646 16.2076 2.20685 16.5814 2.56484L19.7326 5.58334H1.95699C1.42846 5.58334 1 5.99375 1 6.5C1 7.00626 1.42846 7.41667 1.95699 7.41667H19.7326L16.5814 10.4352C16.3945 10.6142 16.3011 10.8488 16.3011 11.0833C16.3011 11.3179 16.3945 11.5525 16.5814 11.7315C16.9551 12.0895 17.561 12.0895 17.9348 11.7315Z" fill="#DFFE03" stroke="#1B1B1B" stroke-width="0.5"/>
</svg>
