<svg width="19" height="18" viewBox="0 0 19 18" fill="none" xmlns="http://www.w3.org/2000/svg">
<path id="Vector" d="M12.623 16.5H6.62305M1.62305 10.3002V4.7002C1.62305 3.58009 1.62305 3.01962 1.84103 2.5918C2.03278 2.21547 2.33852 1.90973 2.71484 1.71799C3.14267 1.5 3.70314 1.5 4.82324 1.5H14.4232C15.5433 1.5 16.1026 1.5 16.5304 1.71799C16.9068 1.90973 17.2135 2.21547 17.4053 2.5918C17.623 3.0192 17.623 3.57899 17.623 4.69691V10.3031C17.623 11.421 17.623 11.98 17.4053 12.4074C17.2135 12.7837 16.9068 13.0905 16.5304 13.2822C16.103 13.5 15.5441 13.5 14.4261 13.5H4.81996C3.70204 13.5 3.14225 13.5 2.71484 13.2822C2.33852 13.0905 2.03278 12.7837 1.84103 12.4074C1.62305 11.9796 1.62305 11.4203 1.62305 10.3002Z" stroke="white" stroke-width="1.5" stroke-linecap="round" stroke-linejoin="round"/>
</svg>
