<svg width="58" height="58" viewBox="0 0 58 58" fill="none" xmlns="http://www.w3.org/2000/svg">
<g id="Group 983">
<path id="Ellipse 19" d="M29 58C45.0163 58 58 45.0163 58 29C58 12.9837 45.0163 0 29 0C12.9837 0 0 12.9837 0 29C0 45.0163 12.9837 58 29 58Z" fill="#CEE531"/>
<g id="Group 982">
<g id="Group 81">
<g id="Group 72">
<path id="Path 163" d="M27.6831 43.8217C25.725 43.8273 23.7852 43.4442 21.9761 42.6947C20.1671 41.9451 18.5249 40.8439 17.1445 39.455L22.4774 34.1221C23.8594 35.5009 25.7319 36.2753 27.6841 36.2753C29.6362 36.2753 31.5087 35.5009 32.8907 34.1221L38.2236 39.455C36.8424 40.8433 35.1998 41.944 33.3905 42.6936C31.5813 43.4431 29.6415 43.8265 27.6831 43.8217Z" fill="black"/>
</g>
<g id="Group 73">
<path id="Path 164" d="M32.8892 23.7105C31.5072 22.3317 29.6347 21.5573 27.6825 21.5573C25.7303 21.5573 23.8579 22.3317 22.4759 23.7105L17.1426 18.3776C18.5263 16.9932 20.1692 15.895 21.9774 15.1457C23.7857 14.3964 25.7238 14.0107 27.6812 14.0107C29.6385 14.0107 31.5767 14.3964 33.385 15.1457C35.1932 15.895 36.8361 16.9932 38.2198 18.3776L32.8892 23.7105Z" fill="black"/>
</g>
<g id="Group 74">
<path id="Path 165" d="M17.1422 39.4571C15.7578 38.0734 14.6596 36.4305 13.9103 34.6223C13.161 32.814 12.7754 30.8758 12.7754 28.9185C12.7754 26.9612 13.161 25.023 13.9103 23.2147C14.6596 21.4065 15.7578 19.7636 17.1422 18.3799L22.4751 23.713C21.7912 24.3965 21.2487 25.208 20.8785 26.1012C20.5084 26.9944 20.3179 27.9518 20.3179 28.9186C20.3179 29.8855 20.5084 30.8428 20.8785 31.736C21.2487 32.6292 21.7912 33.4408 22.4751 34.1242L17.1422 39.4571Z" fill="url(#paint0_linear_145_18391)"/>
</g>
</g>
<path id="Ellipse 20" d="M41.2107 32.9274C43.4263 32.9274 45.2223 31.1313 45.2223 28.9158C45.2223 26.7003 43.4263 24.9043 41.2107 24.9043C38.9952 24.9043 37.1992 26.7003 37.1992 28.9158C37.1992 31.1313 38.9952 32.9274 41.2107 32.9274Z" fill="black"/>
</g>
</g>
<defs>
<linearGradient id="paint0_linear_145_18391" x1="17.6252" y1="18.3799" x2="17.6252" y2="39.4571" gradientUnits="userSpaceOnUse">
<stop/>
<stop offset="1" stop-color="#545454" stop-opacity="0"/>
</linearGradient>
</defs>
</svg>
